%TF.GenerationSoftware,KiCad,Pcbnew,9.0.6*%
%TF.CreationDate,2026-07-10T10:23:27+05:30*%
%TF.ProjectId,Power_Supply,506f7765-725f-4537-9570-706c792e6b69,rev?*%
%TF.SameCoordinates,Original*%
%TF.FileFunction,Legend,Bot*%
%TF.FilePolarity,Positive*%
%FSLAX46Y46*%
G04 Gerber Fmt 4.6, Leading zero omitted, Abs format (unit mm)*
G04 Created by KiCad (PCBNEW 9.0.6) date 2026-07-10 10:23:27*
%MOMM*%
%LPD*%
G01*
G04 APERTURE LIST*
%ADD10C,0.100000*%
G04 APERTURE END LIST*
D10*
X181139806Y-53957419D02*
X181711234Y-53957419D01*
X181425520Y-53957419D02*
X181425520Y-52957419D01*
X181425520Y-52957419D02*
X181520758Y-53100276D01*
X181520758Y-53100276D02*
X181615996Y-53195514D01*
X181615996Y-53195514D02*
X181711234Y-53243133D01*
X180758853Y-53052657D02*
X180711234Y-53005038D01*
X180711234Y-53005038D02*
X180615996Y-52957419D01*
X180615996Y-52957419D02*
X180377901Y-52957419D01*
X180377901Y-52957419D02*
X180282663Y-53005038D01*
X180282663Y-53005038D02*
X180235044Y-53052657D01*
X180235044Y-53052657D02*
X180187425Y-53147895D01*
X180187425Y-53147895D02*
X180187425Y-53243133D01*
X180187425Y-53243133D02*
X180235044Y-53385990D01*
X180235044Y-53385990D02*
X180806472Y-53957419D01*
X180806472Y-53957419D02*
X180187425Y-53957419D01*
X179901710Y-52957419D02*
X179568377Y-53957419D01*
X179568377Y-53957419D02*
X179235044Y-52957419D01*
X178901710Y-53957419D02*
X178901710Y-52957419D01*
X178901710Y-52957419D02*
X178663615Y-52957419D01*
X178663615Y-52957419D02*
X178520758Y-53005038D01*
X178520758Y-53005038D02*
X178425520Y-53100276D01*
X178425520Y-53100276D02*
X178377901Y-53195514D01*
X178377901Y-53195514D02*
X178330282Y-53385990D01*
X178330282Y-53385990D02*
X178330282Y-53528847D01*
X178330282Y-53528847D02*
X178377901Y-53719323D01*
X178377901Y-53719323D02*
X178425520Y-53814561D01*
X178425520Y-53814561D02*
X178520758Y-53909800D01*
X178520758Y-53909800D02*
X178663615Y-53957419D01*
X178663615Y-53957419D02*
X178901710Y-53957419D01*
X177330282Y-53862180D02*
X177377901Y-53909800D01*
X177377901Y-53909800D02*
X177520758Y-53957419D01*
X177520758Y-53957419D02*
X177615996Y-53957419D01*
X177615996Y-53957419D02*
X177758853Y-53909800D01*
X177758853Y-53909800D02*
X177854091Y-53814561D01*
X177854091Y-53814561D02*
X177901710Y-53719323D01*
X177901710Y-53719323D02*
X177949329Y-53528847D01*
X177949329Y-53528847D02*
X177949329Y-53385990D01*
X177949329Y-53385990D02*
X177901710Y-53195514D01*
X177901710Y-53195514D02*
X177854091Y-53100276D01*
X177854091Y-53100276D02*
X177758853Y-53005038D01*
X177758853Y-53005038D02*
X177615996Y-52957419D01*
X177615996Y-52957419D02*
X177520758Y-52957419D01*
X177520758Y-52957419D02*
X177377901Y-53005038D01*
X177377901Y-53005038D02*
X177330282Y-53052657D01*
X177139806Y-54052657D02*
X176377901Y-54052657D01*
X176139805Y-53957419D02*
X176139805Y-52957419D01*
X176139805Y-52957419D02*
X175758853Y-52957419D01*
X175758853Y-52957419D02*
X175663615Y-53005038D01*
X175663615Y-53005038D02*
X175615996Y-53052657D01*
X175615996Y-53052657D02*
X175568377Y-53147895D01*
X175568377Y-53147895D02*
X175568377Y-53290752D01*
X175568377Y-53290752D02*
X175615996Y-53385990D01*
X175615996Y-53385990D02*
X175663615Y-53433609D01*
X175663615Y-53433609D02*
X175758853Y-53481228D01*
X175758853Y-53481228D02*
X176139805Y-53481228D01*
X174949329Y-52957419D02*
X174758853Y-52957419D01*
X174758853Y-52957419D02*
X174663615Y-53005038D01*
X174663615Y-53005038D02*
X174568377Y-53100276D01*
X174568377Y-53100276D02*
X174520758Y-53290752D01*
X174520758Y-53290752D02*
X174520758Y-53624085D01*
X174520758Y-53624085D02*
X174568377Y-53814561D01*
X174568377Y-53814561D02*
X174663615Y-53909800D01*
X174663615Y-53909800D02*
X174758853Y-53957419D01*
X174758853Y-53957419D02*
X174949329Y-53957419D01*
X174949329Y-53957419D02*
X175044567Y-53909800D01*
X175044567Y-53909800D02*
X175139805Y-53814561D01*
X175139805Y-53814561D02*
X175187424Y-53624085D01*
X175187424Y-53624085D02*
X175187424Y-53290752D01*
X175187424Y-53290752D02*
X175139805Y-53100276D01*
X175139805Y-53100276D02*
X175044567Y-53005038D01*
X175044567Y-53005038D02*
X174949329Y-52957419D01*
X174187424Y-52957419D02*
X173949329Y-53957419D01*
X173949329Y-53957419D02*
X173758853Y-53243133D01*
X173758853Y-53243133D02*
X173568377Y-53957419D01*
X173568377Y-53957419D02*
X173330282Y-52957419D01*
X172949329Y-53433609D02*
X172615996Y-53433609D01*
X172473139Y-53957419D02*
X172949329Y-53957419D01*
X172949329Y-53957419D02*
X172949329Y-52957419D01*
X172949329Y-52957419D02*
X172473139Y-52957419D01*
X171473139Y-53957419D02*
X171806472Y-53481228D01*
X172044567Y-53957419D02*
X172044567Y-52957419D01*
X172044567Y-52957419D02*
X171663615Y-52957419D01*
X171663615Y-52957419D02*
X171568377Y-53005038D01*
X171568377Y-53005038D02*
X171520758Y-53052657D01*
X171520758Y-53052657D02*
X171473139Y-53147895D01*
X171473139Y-53147895D02*
X171473139Y-53290752D01*
X171473139Y-53290752D02*
X171520758Y-53385990D01*
X171520758Y-53385990D02*
X171568377Y-53433609D01*
X171568377Y-53433609D02*
X171663615Y-53481228D01*
X171663615Y-53481228D02*
X172044567Y-53481228D01*
X171282663Y-54052657D02*
X170520758Y-54052657D01*
X170330281Y-53909800D02*
X170187424Y-53957419D01*
X170187424Y-53957419D02*
X169949329Y-53957419D01*
X169949329Y-53957419D02*
X169854091Y-53909800D01*
X169854091Y-53909800D02*
X169806472Y-53862180D01*
X169806472Y-53862180D02*
X169758853Y-53766942D01*
X169758853Y-53766942D02*
X169758853Y-53671704D01*
X169758853Y-53671704D02*
X169806472Y-53576466D01*
X169806472Y-53576466D02*
X169854091Y-53528847D01*
X169854091Y-53528847D02*
X169949329Y-53481228D01*
X169949329Y-53481228D02*
X170139805Y-53433609D01*
X170139805Y-53433609D02*
X170235043Y-53385990D01*
X170235043Y-53385990D02*
X170282662Y-53338371D01*
X170282662Y-53338371D02*
X170330281Y-53243133D01*
X170330281Y-53243133D02*
X170330281Y-53147895D01*
X170330281Y-53147895D02*
X170282662Y-53052657D01*
X170282662Y-53052657D02*
X170235043Y-53005038D01*
X170235043Y-53005038D02*
X170139805Y-52957419D01*
X170139805Y-52957419D02*
X169901710Y-52957419D01*
X169901710Y-52957419D02*
X169758853Y-53005038D01*
X169330281Y-52957419D02*
X169330281Y-53766942D01*
X169330281Y-53766942D02*
X169282662Y-53862180D01*
X169282662Y-53862180D02*
X169235043Y-53909800D01*
X169235043Y-53909800D02*
X169139805Y-53957419D01*
X169139805Y-53957419D02*
X168949329Y-53957419D01*
X168949329Y-53957419D02*
X168854091Y-53909800D01*
X168854091Y-53909800D02*
X168806472Y-53862180D01*
X168806472Y-53862180D02*
X168758853Y-53766942D01*
X168758853Y-53766942D02*
X168758853Y-52957419D01*
X168282662Y-53957419D02*
X168282662Y-52957419D01*
X168282662Y-52957419D02*
X167901710Y-52957419D01*
X167901710Y-52957419D02*
X167806472Y-53005038D01*
X167806472Y-53005038D02*
X167758853Y-53052657D01*
X167758853Y-53052657D02*
X167711234Y-53147895D01*
X167711234Y-53147895D02*
X167711234Y-53290752D01*
X167711234Y-53290752D02*
X167758853Y-53385990D01*
X167758853Y-53385990D02*
X167806472Y-53433609D01*
X167806472Y-53433609D02*
X167901710Y-53481228D01*
X167901710Y-53481228D02*
X168282662Y-53481228D01*
X167282662Y-53957419D02*
X167282662Y-52957419D01*
X167282662Y-52957419D02*
X166901710Y-52957419D01*
X166901710Y-52957419D02*
X166806472Y-53005038D01*
X166806472Y-53005038D02*
X166758853Y-53052657D01*
X166758853Y-53052657D02*
X166711234Y-53147895D01*
X166711234Y-53147895D02*
X166711234Y-53290752D01*
X166711234Y-53290752D02*
X166758853Y-53385990D01*
X166758853Y-53385990D02*
X166806472Y-53433609D01*
X166806472Y-53433609D02*
X166901710Y-53481228D01*
X166901710Y-53481228D02*
X167282662Y-53481228D01*
X165806472Y-53957419D02*
X166282662Y-53957419D01*
X166282662Y-53957419D02*
X166282662Y-52957419D01*
X165282662Y-53481228D02*
X165282662Y-53957419D01*
X165615995Y-52957419D02*
X165282662Y-53481228D01*
X165282662Y-53481228D02*
X164949329Y-52957419D01*
M02*
