%TF.GenerationSoftware,KiCad,Pcbnew,9.0.6*%
%TF.CreationDate,2026-07-10T10:23:27+05:30*%
%TF.ProjectId,Power_Supply,506f7765-725f-4537-9570-706c792e6b69,rev?*%
%TF.SameCoordinates,Original*%
%TF.FileFunction,Copper,L1,Top*%
%TF.FilePolarity,Positive*%
%FSLAX46Y46*%
G04 Gerber Fmt 4.6, Leading zero omitted, Abs format (unit mm)*
G04 Created by KiCad (PCBNEW 9.0.6) date 2026-07-10 10:23:27*
%MOMM*%
%LPD*%
G01*
G04 APERTURE LIST*
G04 Aperture macros list*
%AMRoundRect*
0 Rectangle with rounded corners*
0 $1 Rounding radius*
0 $2 $3 $4 $5 $6 $7 $8 $9 X,Y pos of 4 corners*
0 Add a 4 corners polygon primitive as box body*
4,1,4,$2,$3,$4,$5,$6,$7,$8,$9,$2,$3,0*
0 Add four circle primitives for the rounded corners*
1,1,$1+$1,$2,$3*
1,1,$1+$1,$4,$5*
1,1,$1+$1,$6,$7*
1,1,$1+$1,$8,$9*
0 Add four rect primitives between the rounded corners*
20,1,$1+$1,$2,$3,$4,$5,0*
20,1,$1+$1,$4,$5,$6,$7,0*
20,1,$1+$1,$6,$7,$8,$9,0*
20,1,$1+$1,$8,$9,$2,$3,0*%
G04 Aperture macros list end*
%TA.AperFunction,ComponentPad*%
%ADD10R,3.000000X3.000000*%
%TD*%
%TA.AperFunction,ComponentPad*%
%ADD11C,3.000000*%
%TD*%
%TA.AperFunction,SMDPad,CuDef*%
%ADD12RoundRect,0.250000X-1.100000X0.325000X-1.100000X-0.325000X1.100000X-0.325000X1.100000X0.325000X0*%
%TD*%
%TA.AperFunction,ComponentPad*%
%ADD13C,0.700000*%
%TD*%
%TA.AperFunction,ComponentPad*%
%ADD14C,4.400000*%
%TD*%
%TA.AperFunction,ComponentPad*%
%ADD15R,2.200000X2.200000*%
%TD*%
%TA.AperFunction,ComponentPad*%
%ADD16O,2.200000X2.200000*%
%TD*%
%TA.AperFunction,ComponentPad*%
%ADD17R,1.905000X2.000000*%
%TD*%
%TA.AperFunction,ComponentPad*%
%ADD18O,1.905000X2.000000*%
%TD*%
%TA.AperFunction,SMDPad,CuDef*%
%ADD19RoundRect,0.250000X-0.650000X0.325000X-0.650000X-0.325000X0.650000X-0.325000X0.650000X0.325000X0*%
%TD*%
%TA.AperFunction,ComponentPad*%
%ADD20R,1.520000X1.520000*%
%TD*%
%TA.AperFunction,ComponentPad*%
%ADD21C,1.520000*%
%TD*%
%TA.AperFunction,Conductor*%
%ADD22C,0.500000*%
%TD*%
%TA.AperFunction,Conductor*%
%ADD23C,1.000000*%
%TD*%
G04 APERTURE END LIST*
D10*
%TO.P,J1,1,Pin_1*%
%TO.N,INPUT*%
X120543274Y-70126548D03*
D11*
%TO.P,J1,2,Pin_2*%
%TO.N,Net-(J1-Pin_2)*%
X120543274Y-65046548D03*
%TD*%
D12*
%TO.P,C1,1*%
%TO.N,Net-(D3-K)*%
X170967500Y-66525000D03*
%TO.P,C1,2*%
%TO.N,GND*%
X170967500Y-69475000D03*
%TD*%
D13*
%TO.P,H4,1,1*%
%TO.N,unconnected-(H4-Pad1)_8*%
X186817500Y-81166726D03*
%TO.N,unconnected-(H4-Pad1)_5*%
X187300774Y-80000000D03*
%TO.N,unconnected-(H4-Pad1)_6*%
X187300774Y-82333452D03*
%TO.N,unconnected-(H4-Pad1)_7*%
X188467500Y-79516726D03*
D14*
%TO.N,unconnected-(H4-Pad1)_4*%
X188467500Y-81166726D03*
D13*
%TO.N,unconnected-(H4-Pad1)_1*%
X188467500Y-82816726D03*
%TO.N,unconnected-(H4-Pad1)_2*%
X189634226Y-80000000D03*
%TO.N,unconnected-(H4-Pad1)_3*%
X189634226Y-82333452D03*
%TO.N,unconnected-(H4-Pad1)*%
X190117500Y-81166726D03*
%TD*%
D15*
%TO.P,D2,1,K*%
%TO.N,Net-(D2-K)*%
X154387500Y-81000000D03*
D16*
%TO.P,D2,2,A*%
%TO.N,GND*%
X164547500Y-81000000D03*
%TD*%
D13*
%TO.P,H2,1,1*%
%TO.N,unconnected-(H2-Pad1)_4*%
X186817500Y-53150000D03*
%TO.N,unconnected-(H2-Pad1)_1*%
X187300774Y-51983274D03*
%TO.N,unconnected-(H2-Pad1)_5*%
X187300774Y-54316726D03*
%TO.N,unconnected-(H2-Pad1)_7*%
X188467500Y-51500000D03*
D14*
%TO.N,unconnected-(H2-Pad1)_3*%
X188467500Y-53150000D03*
D13*
%TO.N,unconnected-(H2-Pad1)_8*%
X188467500Y-54800000D03*
%TO.N,unconnected-(H2-Pad1)_2*%
X189634226Y-51983274D03*
%TO.N,unconnected-(H2-Pad1)*%
X189634226Y-54316726D03*
%TO.N,unconnected-(H2-Pad1)_6*%
X190117500Y-53150000D03*
%TD*%
D17*
%TO.P,U1,1,VI*%
%TO.N,Net-(D3-K)*%
X158887500Y-57500000D03*
D18*
%TO.P,U1,2,GND*%
%TO.N,GND*%
X161427500Y-57500000D03*
%TO.P,U1,3,VO*%
%TO.N,OUTPUT*%
X163967500Y-57500000D03*
%TD*%
D15*
%TO.P,D4,1,K*%
%TO.N,Net-(D3-K)*%
X164547500Y-76500000D03*
D16*
%TO.P,D4,2,A*%
%TO.N,Net-(D2-K)*%
X154387500Y-76500000D03*
%TD*%
D13*
%TO.P,H1,1,1*%
%TO.N,unconnected-(H1-Pad1)_2*%
X118893274Y-53253274D03*
%TO.N,unconnected-(H1-Pad1)_3*%
X119376548Y-52086548D03*
%TO.N,unconnected-(H1-Pad1)_7*%
X119376548Y-54420000D03*
%TO.N,unconnected-(H1-Pad1)*%
X120543274Y-51603274D03*
D14*
%TO.N,unconnected-(H1-Pad1)_4*%
X120543274Y-53253274D03*
D13*
%TO.N,unconnected-(H1-Pad1)_8*%
X120543274Y-54903274D03*
%TO.N,unconnected-(H1-Pad1)_5*%
X121710000Y-52086548D03*
%TO.N,unconnected-(H1-Pad1)_1*%
X121710000Y-54420000D03*
%TO.N,unconnected-(H1-Pad1)_6*%
X122193274Y-53253274D03*
%TD*%
D19*
%TO.P,C2,1*%
%TO.N,OUTPUT*%
X176967500Y-57525000D03*
%TO.P,C2,2*%
%TO.N,GND*%
X176967500Y-60475000D03*
%TD*%
D15*
%TO.P,D1,1,K*%
%TO.N,Net-(D1-K)*%
X154387500Y-67500000D03*
D16*
%TO.P,D1,2,A*%
%TO.N,GND*%
X164547500Y-67500000D03*
%TD*%
D13*
%TO.P,H3,1,1*%
%TO.N,unconnected-(H3-Pad1)*%
X119226548Y-80419822D03*
%TO.N,unconnected-(H3-Pad1)_1*%
X119709822Y-79253096D03*
%TO.N,unconnected-(H3-Pad1)_3*%
X119709822Y-81586548D03*
%TO.N,unconnected-(H3-Pad1)_5*%
X120876548Y-78769822D03*
D14*
%TO.N,unconnected-(H3-Pad1)_6*%
X120876548Y-80419822D03*
D13*
%TO.N,unconnected-(H3-Pad1)_8*%
X120876548Y-82069822D03*
%TO.N,unconnected-(H3-Pad1)_7*%
X122043274Y-79253096D03*
%TO.N,unconnected-(H3-Pad1)_2*%
X122043274Y-81586548D03*
%TO.N,unconnected-(H3-Pad1)_4*%
X122526548Y-80419822D03*
%TD*%
D10*
%TO.P,J2,1,Pin_1*%
%TO.N,OUTPUT*%
X188467500Y-64960000D03*
D11*
%TO.P,J2,2,Pin_2*%
%TO.N,GND*%
X188467500Y-70040000D03*
%TD*%
D20*
%TO.P,T1,1,AA*%
%TO.N,INPUT*%
X130810000Y-72600000D03*
D21*
%TO.P,T1,2,AB*%
%TO.N,Net-(J1-Pin_2)*%
X130810000Y-64980000D03*
%TO.P,T1,7,SB*%
%TO.N,Net-(D1-K)*%
X143510000Y-64980000D03*
%TO.P,T1,9,SA*%
%TO.N,Net-(D2-K)*%
X143510000Y-72600000D03*
%TD*%
D15*
%TO.P,D3,1,K*%
%TO.N,Net-(D3-K)*%
X164547500Y-72000000D03*
D16*
%TO.P,D3,2,A*%
%TO.N,Net-(D1-K)*%
X154387500Y-72000000D03*
%TD*%
D22*
%TO.N,GND*%
X171532500Y-70040000D02*
X170967500Y-69475000D01*
X166467500Y-67500000D02*
X166967500Y-68000000D01*
X167467500Y-72500000D02*
X171532500Y-72500000D01*
X177467500Y-70040000D02*
X171532500Y-70040000D01*
X177467500Y-63000000D02*
X176967500Y-62500000D01*
X164547500Y-81000000D02*
X171532500Y-74015000D01*
X164547500Y-67500000D02*
X166467500Y-67500000D01*
X176967500Y-62500000D02*
X176967500Y-60475000D01*
X166967500Y-68000000D02*
X166967500Y-72000000D01*
X166967500Y-72000000D02*
X167467500Y-72500000D01*
X171532500Y-72500000D02*
X171532500Y-70040000D01*
X188467500Y-70040000D02*
X177467500Y-70040000D01*
X177467500Y-70040000D02*
X177467500Y-63000000D01*
X161427500Y-57500000D02*
X166427500Y-62500000D01*
X166427500Y-62500000D02*
X176967500Y-62500000D01*
X171532500Y-74015000D02*
X171532500Y-72500000D01*
%TO.N,OUTPUT*%
X188467500Y-59000000D02*
X186967500Y-57500000D01*
X188467500Y-64960000D02*
X188467500Y-59000000D01*
X176942500Y-57500000D02*
X176967500Y-57525000D01*
X163967500Y-57500000D02*
X176942500Y-57500000D01*
X186942500Y-57525000D02*
X176967500Y-57525000D01*
X186967500Y-57500000D02*
X186942500Y-57525000D01*
%TO.N,Net-(D1-K)*%
X154387500Y-67500000D02*
X154387500Y-72000000D01*
D23*
X151867500Y-64980000D02*
X154387500Y-67500000D01*
X143510000Y-64980000D02*
X151867500Y-64980000D01*
%TO.N,Net-(D2-K)*%
X147410000Y-76500000D02*
X154387500Y-76500000D01*
X143510000Y-72600000D02*
X147410000Y-76500000D01*
D22*
X154387500Y-81000000D02*
X154387500Y-76347500D01*
D23*
%TO.N,INPUT*%
X128336548Y-70126548D02*
X130810000Y-72600000D01*
X120543274Y-70126548D02*
X128336548Y-70126548D01*
%TO.N,Net-(J1-Pin_2)*%
X120543274Y-65046548D02*
X130743452Y-65046548D01*
X130790000Y-64960000D02*
X130810000Y-64980000D01*
X130743452Y-65046548D02*
X130810000Y-64980000D01*
D22*
%TO.N,Net-(D3-K)*%
X170967500Y-66525000D02*
X168467500Y-64025000D01*
X164547500Y-72000000D02*
X164547500Y-76500000D01*
X158887500Y-64000000D02*
X158887500Y-69420000D01*
X168467500Y-64000000D02*
X158887500Y-64000000D01*
X158887500Y-69420000D02*
X161467500Y-72000000D01*
X168467500Y-64025000D02*
X168467500Y-64000000D01*
X158887500Y-57500000D02*
X158887500Y-64000000D01*
X161467500Y-72000000D02*
X164547500Y-72000000D01*
%TD*%
%TA.AperFunction,Conductor*%
%TO.N,GND*%
G36*
X191472894Y-49500972D02*
G01*
X191486736Y-49502183D01*
X191630255Y-49514739D01*
X191651535Y-49518491D01*
X191738051Y-49541673D01*
X191798869Y-49557969D01*
X191819181Y-49565362D01*
X191957415Y-49629822D01*
X191976133Y-49640629D01*
X192101082Y-49728119D01*
X192117640Y-49742013D01*
X192225486Y-49849859D01*
X192239380Y-49866417D01*
X192326870Y-49991366D01*
X192337677Y-50010084D01*
X192402137Y-50148318D01*
X192409530Y-50168630D01*
X192449007Y-50315961D01*
X192452760Y-50337246D01*
X192466528Y-50494605D01*
X192467000Y-50505413D01*
X192467000Y-83494586D01*
X192466528Y-83505394D01*
X192452760Y-83662753D01*
X192449007Y-83684038D01*
X192409530Y-83831369D01*
X192402137Y-83851681D01*
X192337677Y-83989915D01*
X192326870Y-84008633D01*
X192239380Y-84133582D01*
X192225486Y-84150140D01*
X192117640Y-84257986D01*
X192101082Y-84271880D01*
X191976133Y-84359370D01*
X191957415Y-84370177D01*
X191819181Y-84434637D01*
X191798869Y-84442030D01*
X191651538Y-84481507D01*
X191630253Y-84485260D01*
X191472895Y-84499028D01*
X191462087Y-84499500D01*
X117834794Y-84499500D01*
X117802701Y-84495275D01*
X117761797Y-84484315D01*
X117678629Y-84462030D01*
X117658318Y-84454637D01*
X117520084Y-84390177D01*
X117501366Y-84379370D01*
X117376417Y-84291880D01*
X117359859Y-84277986D01*
X117252013Y-84170140D01*
X117238119Y-84153582D01*
X117150629Y-84028633D01*
X117139822Y-84009915D01*
X117075362Y-83871681D01*
X117067969Y-83851369D01*
X117059882Y-83821188D01*
X117028491Y-83704035D01*
X117024739Y-83682752D01*
X117022989Y-83662753D01*
X117010972Y-83525393D01*
X117010500Y-83514586D01*
X117010500Y-83454110D01*
X117010499Y-83454106D01*
X117004725Y-83432554D01*
X117000500Y-83400462D01*
X117000500Y-80268158D01*
X118176048Y-80268158D01*
X118176048Y-80571485D01*
X118210005Y-80872870D01*
X118210008Y-80872884D01*
X118277501Y-81168593D01*
X118277505Y-81168605D01*
X118377681Y-81454890D01*
X118509281Y-81728160D01*
X118509283Y-81728163D01*
X118670656Y-81984986D01*
X118800547Y-82147864D01*
X118848091Y-82207483D01*
X118859769Y-82222126D01*
X119074244Y-82436601D01*
X119311384Y-82625714D01*
X119568207Y-82787087D01*
X119841483Y-82918690D01*
X119985347Y-82969030D01*
X120127764Y-83018864D01*
X120127776Y-83018868D01*
X120423485Y-83086362D01*
X120423494Y-83086363D01*
X120423499Y-83086364D01*
X120624422Y-83109002D01*
X120724885Y-83120321D01*
X120724888Y-83120322D01*
X120724891Y-83120322D01*
X121028208Y-83120322D01*
X121028209Y-83120321D01*
X121182242Y-83102966D01*
X121329596Y-83086364D01*
X121329599Y-83086363D01*
X121329611Y-83086362D01*
X121625320Y-83018868D01*
X121911613Y-82918690D01*
X122184889Y-82787087D01*
X122441712Y-82625714D01*
X122678852Y-82436601D01*
X122893327Y-82222126D01*
X123082440Y-81984986D01*
X123243813Y-81728163D01*
X123375416Y-81454887D01*
X123475594Y-81168594D01*
X123543088Y-80872885D01*
X123577048Y-80571479D01*
X123577048Y-80268165D01*
X123543088Y-79966759D01*
X123475594Y-79671050D01*
X123470912Y-79657671D01*
X123400416Y-79456204D01*
X123375416Y-79384757D01*
X123243813Y-79111481D01*
X123082440Y-78854658D01*
X122893327Y-78617518D01*
X122678852Y-78403043D01*
X122441712Y-78213930D01*
X122184889Y-78052557D01*
X122184886Y-78052555D01*
X121911616Y-77920955D01*
X121625331Y-77820779D01*
X121625319Y-77820775D01*
X121397104Y-77768686D01*
X121329611Y-77753282D01*
X121329608Y-77753281D01*
X121329596Y-77753279D01*
X121028211Y-77719322D01*
X121028205Y-77719322D01*
X120724891Y-77719322D01*
X120724884Y-77719322D01*
X120423499Y-77753279D01*
X120423485Y-77753282D01*
X120127776Y-77820775D01*
X120127764Y-77820779D01*
X119841479Y-77920955D01*
X119568209Y-78052555D01*
X119311385Y-78213929D01*
X119074244Y-78403042D01*
X118859768Y-78617518D01*
X118670655Y-78854659D01*
X118509281Y-79111483D01*
X118377681Y-79384753D01*
X118277505Y-79671038D01*
X118277501Y-79671050D01*
X118210008Y-79966759D01*
X118210005Y-79966773D01*
X118176048Y-80268158D01*
X117000500Y-80268158D01*
X117000500Y-68578683D01*
X118542774Y-68578683D01*
X118542774Y-71674418D01*
X118542775Y-71674424D01*
X118549182Y-71734031D01*
X118599476Y-71868876D01*
X118599480Y-71868883D01*
X118685726Y-71984092D01*
X118685729Y-71984095D01*
X118800938Y-72070341D01*
X118800945Y-72070345D01*
X118935791Y-72120639D01*
X118935790Y-72120639D01*
X118942718Y-72121383D01*
X118995401Y-72127048D01*
X122091146Y-72127047D01*
X122150757Y-72120639D01*
X122285605Y-72070344D01*
X122400820Y-71984094D01*
X122487070Y-71868879D01*
X122537365Y-71734031D01*
X122543774Y-71674421D01*
X122543774Y-71251048D01*
X122563459Y-71184009D01*
X122616263Y-71138254D01*
X122667774Y-71127048D01*
X127870766Y-71127048D01*
X127937805Y-71146733D01*
X127958447Y-71163367D01*
X129513181Y-72718102D01*
X129546666Y-72779425D01*
X129549500Y-72805783D01*
X129549500Y-73407870D01*
X129549501Y-73407876D01*
X129555908Y-73467483D01*
X129606202Y-73602328D01*
X129606206Y-73602335D01*
X129692452Y-73717544D01*
X129692455Y-73717547D01*
X129807664Y-73803793D01*
X129807671Y-73803797D01*
X129942517Y-73854091D01*
X129942516Y-73854091D01*
X129949444Y-73854835D01*
X130002127Y-73860500D01*
X131617872Y-73860499D01*
X131677483Y-73854091D01*
X131812331Y-73803796D01*
X131927546Y-73717546D01*
X132013796Y-73602331D01*
X132064091Y-73467483D01*
X132070500Y-73407873D01*
X132070499Y-72500790D01*
X142249500Y-72500790D01*
X142249500Y-72699209D01*
X142280536Y-72895162D01*
X142280537Y-72895168D01*
X142327140Y-73038596D01*
X142341850Y-73083868D01*
X142403021Y-73203922D01*
X142431923Y-73260646D01*
X142548544Y-73421161D01*
X142688839Y-73561456D01*
X142849354Y-73678077D01*
X142962800Y-73735880D01*
X143026131Y-73768149D01*
X143026133Y-73768149D01*
X143026136Y-73768151D01*
X143214832Y-73829463D01*
X143305397Y-73843806D01*
X143368529Y-73873734D01*
X143373678Y-73878598D01*
X146629735Y-77134655D01*
X146629764Y-77134686D01*
X146772214Y-77277136D01*
X146772218Y-77277139D01*
X146936079Y-77386628D01*
X146936092Y-77386635D01*
X147064833Y-77439961D01*
X147107744Y-77457735D01*
X147118164Y-77462051D01*
X147214812Y-77481275D01*
X147263135Y-77490887D01*
X147311458Y-77500500D01*
X147311459Y-77500500D01*
X147311460Y-77500500D01*
X147508540Y-77500500D01*
X153073538Y-77500500D01*
X153140577Y-77520185D01*
X153162849Y-77539623D01*
X153163262Y-77539211D01*
X153344845Y-77720794D01*
X153344850Y-77720798D01*
X153546114Y-77867024D01*
X153548655Y-77868870D01*
X153569296Y-77879386D01*
X153620089Y-77927356D01*
X153637000Y-77989870D01*
X153637000Y-79275500D01*
X153617315Y-79342539D01*
X153564511Y-79388294D01*
X153513000Y-79399500D01*
X153239630Y-79399500D01*
X153239623Y-79399501D01*
X153180016Y-79405908D01*
X153045171Y-79456202D01*
X153045164Y-79456206D01*
X152929955Y-79542452D01*
X152929952Y-79542455D01*
X152843706Y-79657664D01*
X152843702Y-79657671D01*
X152793408Y-79792517D01*
X152787001Y-79852116D01*
X152787001Y-79852123D01*
X152787000Y-79852135D01*
X152787000Y-82147870D01*
X152787001Y-82147876D01*
X152793408Y-82207483D01*
X152843702Y-82342328D01*
X152843706Y-82342335D01*
X152929952Y-82457544D01*
X152929955Y-82457547D01*
X153045164Y-82543793D01*
X153045171Y-82543797D01*
X153180017Y-82594091D01*
X153180016Y-82594091D01*
X153186944Y-82594835D01*
X153239627Y-82600500D01*
X155535372Y-82600499D01*
X155594983Y-82594091D01*
X155729831Y-82543796D01*
X155845046Y-82457546D01*
X155931296Y-82342331D01*
X155981591Y-82207483D01*
X155988000Y-82147873D01*
X155987999Y-81015062D01*
X185767000Y-81015062D01*
X185767000Y-81318389D01*
X185800957Y-81619774D01*
X185800960Y-81619788D01*
X185868453Y-81915497D01*
X185868457Y-81915509D01*
X185968633Y-82201794D01*
X186100233Y-82475064D01*
X186100235Y-82475067D01*
X186261608Y-82731890D01*
X186450721Y-82969030D01*
X186665196Y-83183505D01*
X186902336Y-83372618D01*
X187159159Y-83533991D01*
X187432435Y-83665594D01*
X187647451Y-83740831D01*
X187718716Y-83765768D01*
X187718728Y-83765772D01*
X188014437Y-83833266D01*
X188014446Y-83833267D01*
X188014451Y-83833268D01*
X188215374Y-83855906D01*
X188315837Y-83867225D01*
X188315840Y-83867226D01*
X188315843Y-83867226D01*
X188619160Y-83867226D01*
X188619161Y-83867225D01*
X188773194Y-83849870D01*
X188920548Y-83833268D01*
X188920551Y-83833267D01*
X188920563Y-83833266D01*
X189216272Y-83765772D01*
X189502565Y-83665594D01*
X189775841Y-83533991D01*
X190032664Y-83372618D01*
X190269804Y-83183505D01*
X190484279Y-82969030D01*
X190673392Y-82731890D01*
X190834765Y-82475067D01*
X190966368Y-82201791D01*
X191066546Y-81915498D01*
X191134040Y-81619789D01*
X191168000Y-81318383D01*
X191168000Y-81015069D01*
X191134040Y-80713663D01*
X191066546Y-80417954D01*
X190966368Y-80131661D01*
X190834765Y-79858385D01*
X190673392Y-79601562D01*
X190484279Y-79364422D01*
X190269804Y-79149947D01*
X190032664Y-78960834D01*
X189775841Y-78799461D01*
X189775838Y-78799459D01*
X189502568Y-78667859D01*
X189216283Y-78567683D01*
X189216271Y-78567679D01*
X188988056Y-78515590D01*
X188920563Y-78500186D01*
X188920560Y-78500185D01*
X188920548Y-78500183D01*
X188619163Y-78466226D01*
X188619157Y-78466226D01*
X188315843Y-78466226D01*
X188315836Y-78466226D01*
X188014451Y-78500183D01*
X188014437Y-78500186D01*
X187718728Y-78567679D01*
X187718716Y-78567683D01*
X187432431Y-78667859D01*
X187159161Y-78799459D01*
X186902337Y-78960833D01*
X186665196Y-79149946D01*
X186450720Y-79364422D01*
X186261607Y-79601563D01*
X186100233Y-79858387D01*
X185968633Y-80131657D01*
X185868457Y-80417942D01*
X185868453Y-80417954D01*
X185800960Y-80713663D01*
X185800957Y-80713677D01*
X185767000Y-81015062D01*
X155987999Y-81015062D01*
X155987999Y-80872885D01*
X155987999Y-79852129D01*
X155987998Y-79852123D01*
X155987997Y-79852116D01*
X155981591Y-79792517D01*
X155936282Y-79671038D01*
X155931297Y-79657671D01*
X155931293Y-79657664D01*
X155845047Y-79542455D01*
X155845044Y-79542452D01*
X155729835Y-79456206D01*
X155729828Y-79456202D01*
X155594982Y-79405908D01*
X155594983Y-79405908D01*
X155535383Y-79399501D01*
X155535381Y-79399500D01*
X155535373Y-79399500D01*
X155535365Y-79399500D01*
X155262000Y-79399500D01*
X155194961Y-79379815D01*
X155149206Y-79327011D01*
X155138000Y-79275500D01*
X155138000Y-77989870D01*
X155157685Y-77922831D01*
X155205703Y-77879387D01*
X155226345Y-77868870D01*
X155430156Y-77720793D01*
X155608293Y-77542656D01*
X155756370Y-77338845D01*
X155870741Y-77114379D01*
X155948590Y-76874785D01*
X155988000Y-76625962D01*
X155988000Y-76374038D01*
X155948590Y-76125215D01*
X155870741Y-75885621D01*
X155870739Y-75885618D01*
X155870739Y-75885616D01*
X155829247Y-75804184D01*
X155756370Y-75661155D01*
X155737452Y-75635117D01*
X155608298Y-75457350D01*
X155608294Y-75457345D01*
X155430154Y-75279205D01*
X155430149Y-75279201D01*
X155226348Y-75131132D01*
X155226347Y-75131131D01*
X155226345Y-75131130D01*
X155156247Y-75095413D01*
X155001883Y-75016760D01*
X154762285Y-74938910D01*
X154513462Y-74899500D01*
X154261538Y-74899500D01*
X154137126Y-74919205D01*
X154012714Y-74938910D01*
X153773116Y-75016760D01*
X153548651Y-75131132D01*
X153344850Y-75279201D01*
X153344845Y-75279205D01*
X153163262Y-75460789D01*
X153162187Y-75459714D01*
X153109320Y-75494225D01*
X153073538Y-75499500D01*
X147875782Y-75499500D01*
X147808743Y-75479815D01*
X147788101Y-75463181D01*
X144788598Y-72463678D01*
X144755113Y-72402355D01*
X144753812Y-72395436D01*
X144739463Y-72304832D01*
X144678151Y-72116136D01*
X144678149Y-72116133D01*
X144678149Y-72116131D01*
X144610873Y-71984095D01*
X144588077Y-71939354D01*
X144471456Y-71778839D01*
X144331161Y-71638544D01*
X144170646Y-71521923D01*
X144093179Y-71482452D01*
X143993868Y-71431850D01*
X143948596Y-71417140D01*
X143805168Y-71370537D01*
X143805162Y-71370536D01*
X143609209Y-71339500D01*
X143609204Y-71339500D01*
X143410796Y-71339500D01*
X143410791Y-71339500D01*
X143214837Y-71370536D01*
X143214835Y-71370536D01*
X143214832Y-71370537D01*
X143135832Y-71396206D01*
X143026131Y-71431850D01*
X142849352Y-71521924D01*
X142849349Y-71521926D01*
X142763255Y-71584477D01*
X142688839Y-71638544D01*
X142688837Y-71638546D01*
X142688836Y-71638546D01*
X142548546Y-71778836D01*
X142548546Y-71778837D01*
X142548544Y-71778839D01*
X142494477Y-71853255D01*
X142431926Y-71939349D01*
X142431924Y-71939352D01*
X142341850Y-72116131D01*
X142338303Y-72127048D01*
X142280537Y-72304832D01*
X142280536Y-72304835D01*
X142280536Y-72304837D01*
X142249500Y-72500790D01*
X132070499Y-72500790D01*
X132070499Y-71792128D01*
X132064091Y-71732517D01*
X132042426Y-71674431D01*
X132013797Y-71597671D01*
X132013793Y-71597664D01*
X131927547Y-71482455D01*
X131927544Y-71482452D01*
X131812335Y-71396206D01*
X131812328Y-71396202D01*
X131677482Y-71345908D01*
X131677483Y-71345908D01*
X131617883Y-71339501D01*
X131617881Y-71339500D01*
X131617873Y-71339500D01*
X131617865Y-71339500D01*
X131015783Y-71339500D01*
X130948744Y-71319815D01*
X130928102Y-71303181D01*
X129120757Y-69495837D01*
X129120754Y-69495833D01*
X129120754Y-69495834D01*
X129113687Y-69488767D01*
X129113687Y-69488766D01*
X128974330Y-69349409D01*
X128974329Y-69349408D01*
X128974328Y-69349407D01*
X128810468Y-69239919D01*
X128810459Y-69239914D01*
X128737863Y-69209844D01*
X128681713Y-69186586D01*
X128628384Y-69164497D01*
X128628380Y-69164496D01*
X128628376Y-69164494D01*
X128531736Y-69145272D01*
X128435092Y-69126048D01*
X128435089Y-69126048D01*
X122667773Y-69126048D01*
X122600734Y-69106363D01*
X122554979Y-69053559D01*
X122543773Y-69002048D01*
X122543773Y-68578677D01*
X122543772Y-68578671D01*
X122543771Y-68578664D01*
X122537365Y-68519065D01*
X122487070Y-68384217D01*
X122487069Y-68384216D01*
X122487067Y-68384212D01*
X122400821Y-68269003D01*
X122400818Y-68269000D01*
X122285609Y-68182754D01*
X122285602Y-68182750D01*
X122150756Y-68132456D01*
X122150757Y-68132456D01*
X122091157Y-68126049D01*
X122091155Y-68126048D01*
X122091147Y-68126048D01*
X122091138Y-68126048D01*
X118995403Y-68126048D01*
X118995397Y-68126049D01*
X118935790Y-68132456D01*
X118800945Y-68182750D01*
X118800938Y-68182754D01*
X118685729Y-68269000D01*
X118685726Y-68269003D01*
X118599480Y-68384212D01*
X118599476Y-68384219D01*
X118549182Y-68519065D01*
X118542775Y-68578664D01*
X118542775Y-68578671D01*
X118542774Y-68578683D01*
X117000500Y-68578683D01*
X117000500Y-64915420D01*
X118542774Y-64915420D01*
X118542774Y-65177675D01*
X118555610Y-65275168D01*
X118577004Y-65437664D01*
X118622455Y-65607289D01*
X118644876Y-65690966D01*
X118644879Y-65690976D01*
X118745227Y-65933238D01*
X118745232Y-65933248D01*
X118876349Y-66160351D01*
X119035992Y-66368399D01*
X119036000Y-66368408D01*
X119221414Y-66553822D01*
X119221422Y-66553829D01*
X119429470Y-66713472D01*
X119656573Y-66844589D01*
X119656583Y-66844594D01*
X119898845Y-66944942D01*
X119898855Y-66944946D01*
X120152158Y-67012818D01*
X120412154Y-67047048D01*
X120412161Y-67047048D01*
X120674387Y-67047048D01*
X120674394Y-67047048D01*
X120934390Y-67012818D01*
X121187693Y-66944946D01*
X121429971Y-66844591D01*
X121657077Y-66713472D01*
X121865125Y-66553830D01*
X121865129Y-66553825D01*
X121865134Y-66553822D01*
X122050548Y-66368408D01*
X122050551Y-66368403D01*
X122050556Y-66368399D01*
X122210198Y-66160351D01*
X122239818Y-66109048D01*
X122290385Y-66060833D01*
X122347205Y-66047048D01*
X130097938Y-66047048D01*
X130154232Y-66060563D01*
X130326128Y-66148148D01*
X130326133Y-66148149D01*
X130326136Y-66148151D01*
X130514832Y-66209463D01*
X130612814Y-66224981D01*
X130710791Y-66240500D01*
X130710796Y-66240500D01*
X130909209Y-66240500D01*
X130998278Y-66226392D01*
X131105168Y-66209463D01*
X131293864Y-66148151D01*
X131470646Y-66058077D01*
X131631161Y-65941456D01*
X131771456Y-65801161D01*
X131888077Y-65640646D01*
X131978151Y-65463864D01*
X132039463Y-65275168D01*
X132056392Y-65168278D01*
X132070500Y-65079209D01*
X132070500Y-64880790D01*
X142249500Y-64880790D01*
X142249500Y-65079209D01*
X142265096Y-65177675D01*
X142280537Y-65275168D01*
X142325381Y-65413181D01*
X142341850Y-65463868D01*
X142367999Y-65515187D01*
X142431923Y-65640646D01*
X142548544Y-65801161D01*
X142688839Y-65941456D01*
X142849354Y-66058077D01*
X142949391Y-66109048D01*
X143026131Y-66148149D01*
X143026133Y-66148149D01*
X143026136Y-66148151D01*
X143214832Y-66209463D01*
X143312814Y-66224981D01*
X143410791Y-66240500D01*
X143410796Y-66240500D01*
X143609209Y-66240500D01*
X143698278Y-66226392D01*
X143805168Y-66209463D01*
X143993864Y-66148151D01*
X144170646Y-66058077D01*
X144227433Y-66016819D01*
X144244827Y-66004182D01*
X144310633Y-65980702D01*
X144317712Y-65980500D01*
X151401718Y-65980500D01*
X151468757Y-66000185D01*
X151489399Y-66016819D01*
X152750681Y-67278101D01*
X152784166Y-67339424D01*
X152787000Y-67365782D01*
X152787000Y-68647870D01*
X152787001Y-68647876D01*
X152793408Y-68707483D01*
X152843702Y-68842328D01*
X152843706Y-68842335D01*
X152929952Y-68957544D01*
X152929955Y-68957547D01*
X153045164Y-69043793D01*
X153045171Y-69043797D01*
X153071345Y-69053559D01*
X153180017Y-69094091D01*
X153239627Y-69100500D01*
X153513001Y-69100499D01*
X153580039Y-69120183D01*
X153625794Y-69172987D01*
X153637000Y-69224499D01*
X153637000Y-70510128D01*
X153617315Y-70577167D01*
X153569297Y-70620612D01*
X153548651Y-70631131D01*
X153344850Y-70779201D01*
X153344845Y-70779205D01*
X153166705Y-70957345D01*
X153166701Y-70957350D01*
X153018632Y-71161151D01*
X152904260Y-71385616D01*
X152826410Y-71625214D01*
X152787000Y-71874038D01*
X152787000Y-72125961D01*
X152826410Y-72374785D01*
X152904260Y-72614383D01*
X153018632Y-72838848D01*
X153166701Y-73042649D01*
X153166705Y-73042654D01*
X153344845Y-73220794D01*
X153344850Y-73220798D01*
X153512123Y-73342328D01*
X153548655Y-73368870D01*
X153651284Y-73421162D01*
X153773116Y-73483239D01*
X153773118Y-73483239D01*
X153773121Y-73483241D01*
X154012715Y-73561090D01*
X154261538Y-73600500D01*
X154261539Y-73600500D01*
X154513461Y-73600500D01*
X154513462Y-73600500D01*
X154762285Y-73561090D01*
X155001879Y-73483241D01*
X155226345Y-73368870D01*
X155430156Y-73220793D01*
X155608293Y-73042656D01*
X155756370Y-72838845D01*
X155870741Y-72614379D01*
X155948590Y-72374785D01*
X155988000Y-72125962D01*
X155988000Y-71874038D01*
X155948590Y-71625215D01*
X155870741Y-71385621D01*
X155870739Y-71385618D01*
X155870739Y-71385616D01*
X155828736Y-71303181D01*
X155756370Y-71161155D01*
X155730465Y-71125500D01*
X155608298Y-70957350D01*
X155608294Y-70957345D01*
X155430154Y-70779205D01*
X155430149Y-70779201D01*
X155226348Y-70631131D01*
X155205703Y-70620612D01*
X155154908Y-70572637D01*
X155138000Y-70510128D01*
X155138000Y-69224499D01*
X155157685Y-69157460D01*
X155210489Y-69111705D01*
X155262000Y-69100499D01*
X155535371Y-69100499D01*
X155535372Y-69100499D01*
X155594983Y-69094091D01*
X155729831Y-69043796D01*
X155845046Y-68957546D01*
X155931296Y-68842331D01*
X155981591Y-68707483D01*
X155988000Y-68647873D01*
X155987999Y-66352128D01*
X155981591Y-66292517D01*
X155932296Y-66160351D01*
X155931297Y-66157671D01*
X155931293Y-66157664D01*
X155845047Y-66042455D01*
X155845044Y-66042452D01*
X155729835Y-65956206D01*
X155729828Y-65956202D01*
X155594982Y-65905908D01*
X155594983Y-65905908D01*
X155535383Y-65899501D01*
X155535381Y-65899500D01*
X155535373Y-65899500D01*
X155535365Y-65899500D01*
X154253282Y-65899500D01*
X154186243Y-65879815D01*
X154165601Y-65863181D01*
X152648979Y-64346559D01*
X152648959Y-64346537D01*
X152505285Y-64202863D01*
X152505281Y-64202860D01*
X152341420Y-64093371D01*
X152341411Y-64093366D01*
X152219666Y-64042938D01*
X152212665Y-64040038D01*
X152159336Y-64017949D01*
X152058789Y-63997949D01*
X152054261Y-63997048D01*
X152054260Y-63997048D01*
X151966043Y-63979500D01*
X151966041Y-63979500D01*
X144317712Y-63979500D01*
X144250673Y-63959815D01*
X144244827Y-63955818D01*
X144170656Y-63901930D01*
X144170647Y-63901924D01*
X144170648Y-63901924D01*
X144170646Y-63901923D01*
X144113922Y-63873021D01*
X143993868Y-63811850D01*
X143948596Y-63797140D01*
X143805168Y-63750537D01*
X143805162Y-63750536D01*
X143609209Y-63719500D01*
X143609204Y-63719500D01*
X143410796Y-63719500D01*
X143410791Y-63719500D01*
X143214837Y-63750536D01*
X143214835Y-63750536D01*
X143214832Y-63750537D01*
X143120484Y-63781193D01*
X143026131Y-63811850D01*
X142849352Y-63901924D01*
X142849349Y-63901926D01*
X142763255Y-63964477D01*
X142688839Y-64018544D01*
X142688837Y-64018546D01*
X142688836Y-64018546D01*
X142548546Y-64158836D01*
X142548546Y-64158837D01*
X142548544Y-64158839D01*
X142516561Y-64202860D01*
X142431926Y-64319349D01*
X142431924Y-64319352D01*
X142341850Y-64496131D01*
X142311193Y-64590484D01*
X142280537Y-64684832D01*
X142280536Y-64684835D01*
X142280536Y-64684837D01*
X142249500Y-64880790D01*
X132070500Y-64880790D01*
X132051638Y-64761706D01*
X132039463Y-64684832D01*
X131978151Y-64496136D01*
X131978149Y-64496133D01*
X131978149Y-64496131D01*
X131945880Y-64432800D01*
X131888077Y-64319354D01*
X131771456Y-64158839D01*
X131631161Y-64018544D01*
X131470646Y-63901923D01*
X131413922Y-63873021D01*
X131293868Y-63811850D01*
X131248596Y-63797140D01*
X131105168Y-63750537D01*
X131105162Y-63750536D01*
X130909209Y-63719500D01*
X130909204Y-63719500D01*
X130710796Y-63719500D01*
X130710791Y-63719500D01*
X130514837Y-63750536D01*
X130514835Y-63750536D01*
X130514832Y-63750537D01*
X130420484Y-63781193D01*
X130326131Y-63811850D01*
X130149352Y-63901924D01*
X130149349Y-63901926D01*
X130106931Y-63932745D01*
X129988839Y-64018544D01*
X129988836Y-64018546D01*
X129984898Y-64021408D01*
X129983723Y-64019791D01*
X129927643Y-64044911D01*
X129910890Y-64046048D01*
X122347205Y-64046048D01*
X122280166Y-64026363D01*
X122239818Y-63984048D01*
X122210198Y-63932744D01*
X122050555Y-63724696D01*
X122050548Y-63724688D01*
X121865134Y-63539274D01*
X121865125Y-63539266D01*
X121657077Y-63379623D01*
X121429974Y-63248506D01*
X121429964Y-63248501D01*
X121187702Y-63148153D01*
X121187695Y-63148151D01*
X121187693Y-63148150D01*
X120934390Y-63080278D01*
X120876613Y-63072671D01*
X120674401Y-63046048D01*
X120674394Y-63046048D01*
X120412154Y-63046048D01*
X120412146Y-63046048D01*
X120181046Y-63076474D01*
X120152158Y-63080278D01*
X119898855Y-63148150D01*
X119898845Y-63148153D01*
X119656583Y-63248501D01*
X119656573Y-63248506D01*
X119429470Y-63379623D01*
X119221422Y-63539266D01*
X119035992Y-63724696D01*
X118876349Y-63932744D01*
X118745232Y-64159847D01*
X118745227Y-64159857D01*
X118644879Y-64402119D01*
X118644876Y-64402129D01*
X118577004Y-64655433D01*
X118542774Y-64915420D01*
X117000500Y-64915420D01*
X117000500Y-56452135D01*
X157434500Y-56452135D01*
X157434500Y-58547870D01*
X157434501Y-58547876D01*
X157440908Y-58607483D01*
X157491202Y-58742328D01*
X157491206Y-58742335D01*
X157577452Y-58857544D01*
X157577455Y-58857547D01*
X157692664Y-58943793D01*
X157692671Y-58943797D01*
X157737618Y-58960561D01*
X157827517Y-58994091D01*
X157887127Y-59000500D01*
X158013000Y-59000499D01*
X158080039Y-59020183D01*
X158125794Y-59072987D01*
X158137000Y-59124499D01*
X158137000Y-63926082D01*
X158137000Y-69493918D01*
X158137000Y-69493920D01*
X158136999Y-69493920D01*
X158165840Y-69638907D01*
X158165843Y-69638917D01*
X158222414Y-69775492D01*
X158255312Y-69824727D01*
X158255313Y-69824730D01*
X158304546Y-69898414D01*
X158304552Y-69898421D01*
X160989084Y-72582952D01*
X160989089Y-72582956D01*
X161036115Y-72614377D01*
X161036117Y-72614378D01*
X161036119Y-72614379D01*
X161112005Y-72665084D01*
X161248587Y-72721658D01*
X161248591Y-72721658D01*
X161248592Y-72721659D01*
X161393579Y-72750500D01*
X161393582Y-72750500D01*
X161393583Y-72750500D01*
X161541417Y-72750500D01*
X162823001Y-72750500D01*
X162890040Y-72770185D01*
X162935795Y-72822989D01*
X162947001Y-72874500D01*
X162947001Y-73147876D01*
X162953408Y-73207483D01*
X163003702Y-73342328D01*
X163003706Y-73342335D01*
X163089952Y-73457544D01*
X163089955Y-73457547D01*
X163205164Y-73543793D01*
X163205171Y-73543797D01*
X163250118Y-73560561D01*
X163340017Y-73594091D01*
X163399627Y-73600500D01*
X163673001Y-73600499D01*
X163740039Y-73620183D01*
X163785794Y-73672987D01*
X163797000Y-73724499D01*
X163797000Y-74775500D01*
X163777315Y-74842539D01*
X163724511Y-74888294D01*
X163673000Y-74899500D01*
X163399630Y-74899500D01*
X163399623Y-74899501D01*
X163340016Y-74905908D01*
X163205171Y-74956202D01*
X163205164Y-74956206D01*
X163089955Y-75042452D01*
X163089952Y-75042455D01*
X163003706Y-75157664D01*
X163003702Y-75157671D01*
X162953408Y-75292517D01*
X162947001Y-75352116D01*
X162947001Y-75352123D01*
X162947000Y-75352135D01*
X162947000Y-77647870D01*
X162947001Y-77647876D01*
X162953408Y-77707483D01*
X163003702Y-77842328D01*
X163003706Y-77842335D01*
X163089952Y-77957544D01*
X163089955Y-77957547D01*
X163205164Y-78043793D01*
X163205171Y-78043797D01*
X163340017Y-78094091D01*
X163340016Y-78094091D01*
X163346944Y-78094835D01*
X163399627Y-78100500D01*
X165695372Y-78100499D01*
X165754983Y-78094091D01*
X165889831Y-78043796D01*
X166005046Y-77957546D01*
X166091296Y-77842331D01*
X166141591Y-77707483D01*
X166148000Y-77647873D01*
X166147999Y-75352128D01*
X166141591Y-75292517D01*
X166136624Y-75279201D01*
X166091297Y-75157671D01*
X166091293Y-75157664D01*
X166005047Y-75042455D01*
X166005044Y-75042452D01*
X165889835Y-74956206D01*
X165889828Y-74956202D01*
X165754982Y-74905908D01*
X165754983Y-74905908D01*
X165695383Y-74899501D01*
X165695381Y-74899500D01*
X165695373Y-74899500D01*
X165695365Y-74899500D01*
X165422000Y-74899500D01*
X165354961Y-74879815D01*
X165309206Y-74827011D01*
X165298000Y-74775500D01*
X165298000Y-73724499D01*
X165317685Y-73657460D01*
X165370489Y-73611705D01*
X165422000Y-73600499D01*
X165695371Y-73600499D01*
X165695372Y-73600499D01*
X165754983Y-73594091D01*
X165889831Y-73543796D01*
X166005046Y-73457546D01*
X166091296Y-73342331D01*
X166141591Y-73207483D01*
X166148000Y-73147873D01*
X166147999Y-70852128D01*
X166141591Y-70792517D01*
X166136624Y-70779201D01*
X166091297Y-70657671D01*
X166091293Y-70657664D01*
X166005047Y-70542455D01*
X166005044Y-70542452D01*
X165889835Y-70456206D01*
X165889828Y-70456202D01*
X165754982Y-70405908D01*
X165754983Y-70405908D01*
X165695383Y-70399501D01*
X165695381Y-70399500D01*
X165695373Y-70399500D01*
X165695364Y-70399500D01*
X163399629Y-70399500D01*
X163399623Y-70399501D01*
X163340016Y-70405908D01*
X163205171Y-70456202D01*
X163205164Y-70456206D01*
X163089955Y-70542452D01*
X163089952Y-70542455D01*
X163003706Y-70657664D01*
X163003702Y-70657671D01*
X162953408Y-70792517D01*
X162947001Y-70852116D01*
X162947001Y-70852123D01*
X162947000Y-70852135D01*
X162947000Y-71125500D01*
X162927315Y-71192539D01*
X162874511Y-71238294D01*
X162823000Y-71249500D01*
X161829730Y-71249500D01*
X161762691Y-71229815D01*
X161742049Y-71213181D01*
X159674319Y-69145451D01*
X159640834Y-69084128D01*
X159638000Y-69057770D01*
X159638000Y-64874500D01*
X159657685Y-64807461D01*
X159710489Y-64761706D01*
X159762000Y-64750500D01*
X168080270Y-64750500D01*
X168147309Y-64770185D01*
X168167951Y-64786819D01*
X169148293Y-65767161D01*
X169181778Y-65828484D01*
X169178318Y-65893845D01*
X169127501Y-66047200D01*
X169127500Y-66047204D01*
X169117000Y-66149983D01*
X169117000Y-66900001D01*
X169117001Y-66900019D01*
X169127500Y-67002796D01*
X169127501Y-67002799D01*
X169142164Y-67047047D01*
X169182686Y-67169334D01*
X169274788Y-67318656D01*
X169398844Y-67442712D01*
X169548166Y-67534814D01*
X169714703Y-67589999D01*
X169817491Y-67600500D01*
X172117508Y-67600499D01*
X172220297Y-67589999D01*
X172386834Y-67534814D01*
X172536156Y-67442712D01*
X172660212Y-67318656D01*
X172752314Y-67169334D01*
X172807499Y-67002797D01*
X172818000Y-66900009D01*
X172817999Y-66149992D01*
X172807499Y-66047203D01*
X172752314Y-65880666D01*
X172660212Y-65731344D01*
X172536156Y-65607288D01*
X172386834Y-65515186D01*
X172220297Y-65460001D01*
X172220295Y-65460000D01*
X172117516Y-65449500D01*
X172117509Y-65449500D01*
X171004730Y-65449500D01*
X170937691Y-65429815D01*
X170917049Y-65413181D01*
X169109425Y-63605557D01*
X169094003Y-63586765D01*
X169050452Y-63521585D01*
X169050448Y-63521580D01*
X168945919Y-63417051D01*
X168945915Y-63417048D01*
X168823001Y-63334919D01*
X168822988Y-63334912D01*
X168686417Y-63278343D01*
X168686407Y-63278340D01*
X168541420Y-63249500D01*
X168541418Y-63249500D01*
X159762000Y-63249500D01*
X159694961Y-63229815D01*
X159649206Y-63177011D01*
X159638000Y-63125500D01*
X159638000Y-59124499D01*
X159657685Y-59057460D01*
X159710489Y-59011705D01*
X159762000Y-59000499D01*
X159887871Y-59000499D01*
X159887872Y-59000499D01*
X159947483Y-58994091D01*
X160082331Y-58943796D01*
X160197546Y-58857546D01*
X160283796Y-58742331D01*
X160334091Y-58607483D01*
X160340500Y-58547873D01*
X160340499Y-57338146D01*
X162514500Y-57338146D01*
X162514500Y-57661853D01*
X162550278Y-57887746D01*
X162550278Y-57887749D01*
X162620950Y-58105255D01*
X162711114Y-58282212D01*
X162724783Y-58309038D01*
X162859214Y-58494066D01*
X163020934Y-58655786D01*
X163205962Y-58790217D01*
X163338099Y-58857544D01*
X163409744Y-58894049D01*
X163627251Y-58964721D01*
X163627252Y-58964721D01*
X163627255Y-58964722D01*
X163853146Y-59000500D01*
X163853147Y-59000500D01*
X164081853Y-59000500D01*
X164081854Y-59000500D01*
X164307745Y-58964722D01*
X164307748Y-58964721D01*
X164307749Y-58964721D01*
X164525255Y-58894049D01*
X164525255Y-58894048D01*
X164525258Y-58894048D01*
X164729038Y-58790217D01*
X164914066Y-58655786D01*
X165075786Y-58494066D01*
X165210217Y-58309038D01*
X165210217Y-58309037D01*
X165213081Y-58305096D01*
X165214091Y-58305830D01*
X165261623Y-58262832D01*
X165315533Y-58250500D01*
X175613542Y-58250500D01*
X175680581Y-58270185D01*
X175719080Y-58309402D01*
X175724788Y-58318656D01*
X175848844Y-58442712D01*
X175998166Y-58534814D01*
X176164703Y-58589999D01*
X176267491Y-58600500D01*
X177667508Y-58600499D01*
X177770297Y-58589999D01*
X177936834Y-58534814D01*
X178086156Y-58442712D01*
X178210212Y-58318656D01*
X178210212Y-58318655D01*
X178215319Y-58313549D01*
X178217205Y-58315435D01*
X178264125Y-58282212D01*
X178304368Y-58275500D01*
X186630270Y-58275500D01*
X186697309Y-58295185D01*
X186717951Y-58311819D01*
X187680681Y-59274548D01*
X187714166Y-59335871D01*
X187717000Y-59362229D01*
X187717000Y-62835500D01*
X187697315Y-62902539D01*
X187644511Y-62948294D01*
X187593000Y-62959500D01*
X186919629Y-62959500D01*
X186919623Y-62959501D01*
X186860016Y-62965908D01*
X186725171Y-63016202D01*
X186725164Y-63016206D01*
X186609955Y-63102452D01*
X186609952Y-63102455D01*
X186523706Y-63217664D01*
X186523702Y-63217671D01*
X186473408Y-63352517D01*
X186467001Y-63412116D01*
X186467001Y-63412123D01*
X186467000Y-63412135D01*
X186467000Y-66507870D01*
X186467001Y-66507876D01*
X186473408Y-66567483D01*
X186523702Y-66702328D01*
X186523706Y-66702335D01*
X186609952Y-66817544D01*
X186609955Y-66817547D01*
X186725164Y-66903793D01*
X186725171Y-66903797D01*
X186860017Y-66954091D01*
X186860016Y-66954091D01*
X186866944Y-66954835D01*
X186919627Y-66960500D01*
X190015372Y-66960499D01*
X190074983Y-66954091D01*
X190209831Y-66903796D01*
X190325046Y-66817546D01*
X190411296Y-66702331D01*
X190461591Y-66567483D01*
X190468000Y-66507873D01*
X190467999Y-63412128D01*
X190461591Y-63352517D01*
X190455027Y-63334919D01*
X190411297Y-63217671D01*
X190411293Y-63217664D01*
X190325047Y-63102455D01*
X190325044Y-63102452D01*
X190209835Y-63016206D01*
X190209828Y-63016202D01*
X190074982Y-62965908D01*
X190074983Y-62965908D01*
X190015383Y-62959501D01*
X190015381Y-62959500D01*
X190015373Y-62959500D01*
X190015365Y-62959500D01*
X189342000Y-62959500D01*
X189274961Y-62939815D01*
X189229206Y-62887011D01*
X189218000Y-62835500D01*
X189218000Y-58926079D01*
X189189159Y-58781092D01*
X189189158Y-58781091D01*
X189189158Y-58781087D01*
X189189156Y-58781082D01*
X189132587Y-58644511D01*
X189132580Y-58644498D01*
X189050452Y-58521585D01*
X189022933Y-58494066D01*
X188945916Y-58417049D01*
X188634122Y-58105255D01*
X187445921Y-56917052D01*
X187445917Y-56917049D01*
X187445916Y-56917048D01*
X187322994Y-56834916D01*
X187322992Y-56834915D01*
X187322990Y-56834914D01*
X187186412Y-56778342D01*
X187186406Y-56778340D01*
X187041419Y-56749500D01*
X187041417Y-56749500D01*
X186893582Y-56749500D01*
X186893580Y-56749500D01*
X186779882Y-56772117D01*
X186755690Y-56774500D01*
X178304368Y-56774500D01*
X178237329Y-56754815D01*
X178216153Y-56735616D01*
X178215319Y-56736451D01*
X178086157Y-56607289D01*
X178086156Y-56607288D01*
X177936834Y-56515186D01*
X177770297Y-56460001D01*
X177770295Y-56460000D01*
X177667510Y-56449500D01*
X176267498Y-56449500D01*
X176267481Y-56449501D01*
X176164703Y-56460000D01*
X176164700Y-56460001D01*
X175998168Y-56515185D01*
X175998163Y-56515187D01*
X175848845Y-56607287D01*
X175742950Y-56713182D01*
X175681627Y-56746666D01*
X175655269Y-56749500D01*
X165315533Y-56749500D01*
X165248494Y-56729815D01*
X165213805Y-56694377D01*
X165213081Y-56694904D01*
X165210216Y-56690961D01*
X165075786Y-56505934D01*
X164914066Y-56344214D01*
X164729038Y-56209783D01*
X164525255Y-56105950D01*
X164307748Y-56035278D01*
X164122312Y-56005908D01*
X164081854Y-55999500D01*
X163853146Y-55999500D01*
X163812688Y-56005908D01*
X163627253Y-56035278D01*
X163627250Y-56035278D01*
X163409744Y-56105950D01*
X163205961Y-56209783D01*
X163140050Y-56257671D01*
X163020934Y-56344214D01*
X163020932Y-56344216D01*
X163020931Y-56344216D01*
X162859216Y-56505931D01*
X162859216Y-56505932D01*
X162859214Y-56505934D01*
X162801480Y-56585396D01*
X162724783Y-56690961D01*
X162620950Y-56894744D01*
X162550278Y-57112250D01*
X162550278Y-57112253D01*
X162514500Y-57338146D01*
X160340499Y-57338146D01*
X160340499Y-56452128D01*
X160334091Y-56392517D01*
X160283796Y-56257669D01*
X160283795Y-56257668D01*
X160283793Y-56257664D01*
X160197547Y-56142455D01*
X160197544Y-56142452D01*
X160082335Y-56056206D01*
X160082328Y-56056202D01*
X159947482Y-56005908D01*
X159947483Y-56005908D01*
X159887883Y-55999501D01*
X159887881Y-55999500D01*
X159887873Y-55999500D01*
X159887864Y-55999500D01*
X157887129Y-55999500D01*
X157887123Y-55999501D01*
X157827516Y-56005908D01*
X157692671Y-56056202D01*
X157692664Y-56056206D01*
X157577455Y-56142452D01*
X157577452Y-56142455D01*
X157491206Y-56257664D01*
X157491202Y-56257671D01*
X157440908Y-56392517D01*
X157434782Y-56449500D01*
X157434501Y-56452123D01*
X157434500Y-56452135D01*
X117000500Y-56452135D01*
X117000500Y-53101610D01*
X117842774Y-53101610D01*
X117842774Y-53404937D01*
X117876731Y-53706322D01*
X117876734Y-53706336D01*
X117944227Y-54002045D01*
X117944231Y-54002057D01*
X118044407Y-54288342D01*
X118176007Y-54561612D01*
X118176009Y-54561615D01*
X118337382Y-54818438D01*
X118526495Y-55055578D01*
X118740970Y-55270053D01*
X118978110Y-55459166D01*
X119234933Y-55620539D01*
X119234935Y-55620540D01*
X119293759Y-55648868D01*
X119508209Y-55752142D01*
X119692254Y-55816542D01*
X119794490Y-55852316D01*
X119794502Y-55852320D01*
X120090211Y-55919814D01*
X120090220Y-55919815D01*
X120090225Y-55919816D01*
X120291148Y-55942454D01*
X120391611Y-55953773D01*
X120391614Y-55953774D01*
X120391617Y-55953774D01*
X120694934Y-55953774D01*
X120694935Y-55953773D01*
X120848968Y-55936418D01*
X120996322Y-55919816D01*
X120996325Y-55919815D01*
X120996337Y-55919814D01*
X121292046Y-55852320D01*
X121578339Y-55752142D01*
X121851615Y-55620539D01*
X122108438Y-55459166D01*
X122345578Y-55270053D01*
X122560053Y-55055578D01*
X122749166Y-54818438D01*
X122910539Y-54561615D01*
X123042142Y-54288339D01*
X123142320Y-54002046D01*
X123209814Y-53706337D01*
X123243774Y-53404931D01*
X123243774Y-53101617D01*
X123241677Y-53083006D01*
X123233311Y-53008747D01*
X123232138Y-52998336D01*
X185767000Y-52998336D01*
X185767000Y-53301663D01*
X185800957Y-53603048D01*
X185800960Y-53603062D01*
X185868453Y-53898771D01*
X185868457Y-53898783D01*
X185968633Y-54185068D01*
X186100233Y-54458338D01*
X186100235Y-54458341D01*
X186261608Y-54715164D01*
X186450721Y-54952304D01*
X186665196Y-55166779D01*
X186902336Y-55355892D01*
X187159159Y-55517265D01*
X187432435Y-55648868D01*
X187647451Y-55724105D01*
X187718716Y-55749042D01*
X187718728Y-55749046D01*
X188014437Y-55816540D01*
X188014446Y-55816541D01*
X188014451Y-55816542D01*
X188215374Y-55839180D01*
X188315837Y-55850499D01*
X188315840Y-55850500D01*
X188315843Y-55850500D01*
X188619160Y-55850500D01*
X188619161Y-55850499D01*
X188773194Y-55833144D01*
X188920548Y-55816542D01*
X188920551Y-55816541D01*
X188920563Y-55816540D01*
X189216272Y-55749046D01*
X189502565Y-55648868D01*
X189775841Y-55517265D01*
X190032664Y-55355892D01*
X190269804Y-55166779D01*
X190484279Y-54952304D01*
X190673392Y-54715164D01*
X190834765Y-54458341D01*
X190966368Y-54185065D01*
X191066546Y-53898772D01*
X191134040Y-53603063D01*
X191168000Y-53301657D01*
X191168000Y-52998343D01*
X191145678Y-52800225D01*
X191134042Y-52696951D01*
X191134041Y-52696946D01*
X191134040Y-52696937D01*
X191066546Y-52401228D01*
X190966368Y-52114935D01*
X190834765Y-51841659D01*
X190673392Y-51584836D01*
X190484279Y-51347696D01*
X190269804Y-51133221D01*
X190032664Y-50944108D01*
X189826964Y-50814858D01*
X189775838Y-50782733D01*
X189502568Y-50651133D01*
X189216283Y-50550957D01*
X189216271Y-50550953D01*
X188969392Y-50494605D01*
X188920563Y-50483460D01*
X188920560Y-50483459D01*
X188920548Y-50483457D01*
X188619163Y-50449500D01*
X188619157Y-50449500D01*
X188315843Y-50449500D01*
X188315836Y-50449500D01*
X188014451Y-50483457D01*
X188014437Y-50483460D01*
X187718728Y-50550953D01*
X187718716Y-50550957D01*
X187432431Y-50651133D01*
X187159161Y-50782733D01*
X186902337Y-50944107D01*
X186665196Y-51133220D01*
X186450720Y-51347696D01*
X186261607Y-51584837D01*
X186100233Y-51841661D01*
X185968633Y-52114931D01*
X185868457Y-52401216D01*
X185868453Y-52401228D01*
X185800960Y-52696937D01*
X185800957Y-52696951D01*
X185767000Y-52998336D01*
X123232138Y-52998336D01*
X123216734Y-52861630D01*
X123209814Y-52800211D01*
X123142320Y-52504502D01*
X123042142Y-52218209D01*
X122910539Y-51944933D01*
X122749166Y-51688110D01*
X122560053Y-51450970D01*
X122345578Y-51236495D01*
X122108438Y-51047382D01*
X121851615Y-50886009D01*
X121851612Y-50886007D01*
X121578342Y-50754407D01*
X121292057Y-50654231D01*
X121292045Y-50654227D01*
X121058967Y-50601029D01*
X120996337Y-50586734D01*
X120996334Y-50586733D01*
X120996322Y-50586731D01*
X120694937Y-50552774D01*
X120694931Y-50552774D01*
X120391617Y-50552774D01*
X120391610Y-50552774D01*
X120090225Y-50586731D01*
X120090211Y-50586734D01*
X119794502Y-50654227D01*
X119794490Y-50654231D01*
X119508205Y-50754407D01*
X119234935Y-50886007D01*
X118978111Y-51047381D01*
X118740970Y-51236494D01*
X118526494Y-51450970D01*
X118337381Y-51688111D01*
X118176007Y-51944935D01*
X118044407Y-52218205D01*
X117944231Y-52504490D01*
X117944227Y-52504502D01*
X117876734Y-52800211D01*
X117876731Y-52800225D01*
X117842774Y-53101610D01*
X117000500Y-53101610D01*
X117000500Y-50614109D01*
X117000500Y-50614108D01*
X116989939Y-50574694D01*
X116985725Y-50544240D01*
X116985140Y-50500000D01*
X116984512Y-50452452D01*
X116986355Y-50429454D01*
X116996947Y-50368886D01*
X117014404Y-50269063D01*
X117020473Y-50246814D01*
X117077758Y-50094384D01*
X117087843Y-50073647D01*
X117172372Y-49934479D01*
X117186131Y-49915962D01*
X117294980Y-49794866D01*
X117311934Y-49779216D01*
X117441330Y-49680386D01*
X117460885Y-49668149D01*
X117606365Y-49594999D01*
X117627838Y-49586603D01*
X117784355Y-49541671D01*
X117807013Y-49537398D01*
X117980673Y-49521166D01*
X117980673Y-49521161D01*
X118046565Y-49521159D01*
X118115562Y-49502669D01*
X118123442Y-49501609D01*
X118127198Y-49502183D01*
X118139985Y-49500500D01*
X191401608Y-49500500D01*
X191462087Y-49500500D01*
X191472894Y-49500972D01*
G37*
%TD.AperFunction*%
%TD*%
M02*
