M48
; DRILL file {KiCad 9.0.6} date 2026-07-10T10:23:31+0530
; FORMAT={-:-/ absolute / inch / decimal}
; #@! TF.CreationDate,2026-07-10T10:23:31+05:30
; #@! TF.GenerationSoftware,Kicad,Pcbnew,9.0.6
; #@! TF.FileFunction,MixedPlating,1,2
FMAT,2
INCH
; #@! TA.AperFunction,Plated,PTH,ComponentDrill
T1C0.0157
; #@! TA.AperFunction,Plated,PTH,ComponentDrill
T2C0.0319
; #@! TA.AperFunction,Plated,PTH,ComponentDrill
T3C0.0433
; #@! TA.AperFunction,Plated,PTH,ComponentDrill
T4C0.0598
; #@! TA.AperFunction,Plated,PTH,ComponentDrill
T5C0.0866
%
G90
G05
T1
X4.6808Y-2.0966
X4.694Y-3.1661
X4.6999Y-2.0507
X4.6999Y-2.1425
X4.713Y-3.1202
X4.713Y-3.2121
X4.7458Y-2.0316
X4.7458Y-2.1615
X4.7589Y-3.1012
X4.7589Y-3.2311
X4.7917Y-2.0507
X4.7917Y-2.1425
X4.8049Y-3.1202
X4.8049Y-3.2121
X4.8108Y-2.0966
X4.8239Y-3.1661
X7.355Y-2.0925
X7.355Y-3.1955
X7.374Y-2.0466
X7.374Y-2.1385
X7.374Y-3.1496
X7.374Y-3.2415
X7.42Y-2.0276
X7.42Y-2.1575
X7.42Y-3.1306
X7.42Y-3.2605
X7.4659Y-2.0466
X7.4659Y-2.1385
X7.4659Y-3.1496
X7.4659Y-3.2415
X7.4849Y-2.0925
X7.4849Y-3.1955
T2
X5.15Y-2.5583
X5.15Y-2.8583
X5.65Y-2.5583
X5.65Y-2.8583
T3
X6.0782Y-2.6575
X6.0782Y-2.8346
X6.0782Y-3.0118
X6.0782Y-3.189
X6.2554Y-2.2638
X6.3554Y-2.2638
X6.4554Y-2.2638
X6.4782Y-2.6575
X6.4782Y-2.8346
X6.4782Y-3.0118
X6.4782Y-3.189
T4
X4.7458Y-2.5609
X4.7458Y-2.7609
X7.42Y-2.5575
X7.42Y-2.7575
T5
X4.7458Y-2.0966
X4.7589Y-3.1661
X7.42Y-2.0925
X7.42Y-3.1955
M30
