%TF.GenerationSoftware,KiCad,Pcbnew,8.0.7*%
%TF.CreationDate,2025-08-07T00:01:01+05:30*%
%TF.ProjectId,Power_Supply,506f7765-725f-4537-9570-706c792e6b69,rev?*%
%TF.SameCoordinates,Original*%
%TF.FileFunction,Soldermask,Bot*%
%TF.FilePolarity,Negative*%
%FSLAX46Y46*%
G04 Gerber Fmt 4.6, Leading zero omitted, Abs format (unit mm)*
G04 Created by KiCad (PCBNEW 8.0.7) date 2025-08-07 00:01:01*
%MOMM*%
%LPD*%
G01*
G04 APERTURE LIST*
%ADD10C,0.700000*%
%ADD11C,4.400000*%
%ADD12R,1.905000X2.000000*%
%ADD13O,1.905000X2.000000*%
%ADD14C,3.000000*%
%ADD15R,3.000000X3.000000*%
%ADD16R,2.200000X2.200000*%
%ADD17O,2.200000X2.200000*%
G04 APERTURE END LIST*
D10*
%TO.C,H4*%
X182150000Y-97166726D03*
X181666726Y-98333452D03*
X181666726Y-96000000D03*
X180500000Y-98816726D03*
D11*
X180500000Y-97166726D03*
D10*
X180500000Y-95516726D03*
X179333274Y-98333452D03*
X179333274Y-96000000D03*
X178850000Y-97166726D03*
%TD*%
%TO.C,H3*%
X105483274Y-96333274D03*
X105000000Y-97500000D03*
X105000000Y-95166548D03*
X103833274Y-97983274D03*
D11*
X103833274Y-96333274D03*
D10*
X103833274Y-94683274D03*
X102666548Y-97500000D03*
X102666548Y-95166548D03*
X102183274Y-96333274D03*
%TD*%
%TO.C,H2*%
X182150000Y-69150000D03*
X181666726Y-70316726D03*
X181666726Y-67983274D03*
X180500000Y-70800000D03*
D11*
X180500000Y-69150000D03*
D10*
X180500000Y-67500000D03*
X179333274Y-70316726D03*
X179333274Y-67983274D03*
X178850000Y-69150000D03*
%TD*%
%TO.C,H1*%
X105150000Y-69166726D03*
X104666726Y-70333452D03*
X104666726Y-68000000D03*
X103500000Y-70816726D03*
D11*
X103500000Y-69166726D03*
D10*
X103500000Y-67516726D03*
X102333274Y-70333452D03*
X102333274Y-68000000D03*
X101850000Y-69166726D03*
%TD*%
D12*
%TO.C,U1*%
X150920000Y-73500000D03*
D13*
X153460000Y-73500000D03*
X156000000Y-73500000D03*
%TD*%
D14*
%TO.C,T1*%
X139500000Y-93500000D03*
X139500000Y-88500000D03*
X139500000Y-83500000D03*
X139500000Y-78500000D03*
X139500000Y-73500000D03*
X119500000Y-73500000D03*
X119500000Y-78500000D03*
X119500000Y-83500000D03*
X119500000Y-88500000D03*
X119500000Y-93500000D03*
%TD*%
%TO.C,J2*%
X180500000Y-86040000D03*
D15*
X180500000Y-80960000D03*
%TD*%
D14*
%TO.C,J1*%
X103500000Y-80960000D03*
D15*
X103500000Y-86040000D03*
%TD*%
D16*
%TO.C,D4*%
X156580000Y-92500000D03*
D17*
X146420000Y-92500000D03*
%TD*%
D16*
%TO.C,D3*%
X156580000Y-88000000D03*
D17*
X146420000Y-88000000D03*
%TD*%
D16*
%TO.C,D2*%
X146420000Y-97000000D03*
D17*
X156580000Y-97000000D03*
%TD*%
D16*
%TO.C,D1*%
X146420000Y-83500000D03*
D17*
X156580000Y-83500000D03*
%TD*%
M02*
