%TF.GenerationSoftware,KiCad,Pcbnew,8.0.7*%
%TF.CreationDate,2025-08-07T00:00:54+05:30*%
%TF.ProjectId,Power_Supply,506f7765-725f-4537-9570-706c792e6b69,rev?*%
%TF.SameCoordinates,Original*%
%TF.FileFunction,Drillmap*%
%TF.FilePolarity,Positive*%
%FSLAX45Y45*%
G04 Gerber Fmt 4.5, Leading zero omitted, Abs format (unit mm)*
G04 Created by KiCad (PCBNEW 8.0.7) date 2025-08-07 00:00:54*
%MOMM*%
%LPD*%
G01*
G04 APERTURE LIST*
%ADD10C,0.200000*%
G04 APERTURE END LIST*
D10*
X18500000Y-9950000D02*
G75*
G02*
X18350000Y-10100000I-150000J0D01*
G01*
X18350000Y-6500000D02*
G75*
G02*
X18500000Y-6650000I0J-150000D01*
G01*
X10100000Y-10100000D02*
G75*
G02*
X9950000Y-9950000I0J150000D01*
G01*
X9950000Y-6650000D02*
G75*
G02*
X10100000Y-6500000I150000J0D01*
G01*
X10100000Y-6500000D02*
X18350000Y-6500000D01*
X18500000Y-6650000D02*
X18500000Y-9950000D01*
X18350000Y-10100000D02*
X10100000Y-10100000D01*
X9950000Y-9950000D02*
X9950000Y-6650000D01*
X10200777Y-10421484D02*
X10200777Y-10221484D01*
X10200777Y-10221484D02*
X10248396Y-10221484D01*
X10248396Y-10221484D02*
X10276967Y-10231008D01*
X10276967Y-10231008D02*
X10296015Y-10250055D01*
X10296015Y-10250055D02*
X10305539Y-10269103D01*
X10305539Y-10269103D02*
X10315063Y-10307198D01*
X10315063Y-10307198D02*
X10315063Y-10335770D01*
X10315063Y-10335770D02*
X10305539Y-10373865D01*
X10305539Y-10373865D02*
X10296015Y-10392912D01*
X10296015Y-10392912D02*
X10276967Y-10411960D01*
X10276967Y-10411960D02*
X10248396Y-10421484D01*
X10248396Y-10421484D02*
X10200777Y-10421484D01*
X10400777Y-10421484D02*
X10400777Y-10288150D01*
X10400777Y-10326246D02*
X10410301Y-10307198D01*
X10410301Y-10307198D02*
X10419824Y-10297674D01*
X10419824Y-10297674D02*
X10438872Y-10288150D01*
X10438872Y-10288150D02*
X10457920Y-10288150D01*
X10524586Y-10421484D02*
X10524586Y-10288150D01*
X10524586Y-10221484D02*
X10515063Y-10231008D01*
X10515063Y-10231008D02*
X10524586Y-10240531D01*
X10524586Y-10240531D02*
X10534110Y-10231008D01*
X10534110Y-10231008D02*
X10524586Y-10221484D01*
X10524586Y-10221484D02*
X10524586Y-10240531D01*
X10648396Y-10421484D02*
X10629348Y-10411960D01*
X10629348Y-10411960D02*
X10619824Y-10392912D01*
X10619824Y-10392912D02*
X10619824Y-10221484D01*
X10753158Y-10421484D02*
X10734110Y-10411960D01*
X10734110Y-10411960D02*
X10724586Y-10392912D01*
X10724586Y-10392912D02*
X10724586Y-10221484D01*
X10981729Y-10421484D02*
X10981729Y-10221484D01*
X10981729Y-10221484D02*
X11048396Y-10364341D01*
X11048396Y-10364341D02*
X11115063Y-10221484D01*
X11115063Y-10221484D02*
X11115063Y-10421484D01*
X11296015Y-10421484D02*
X11296015Y-10316722D01*
X11296015Y-10316722D02*
X11286491Y-10297674D01*
X11286491Y-10297674D02*
X11267443Y-10288150D01*
X11267443Y-10288150D02*
X11229348Y-10288150D01*
X11229348Y-10288150D02*
X11210301Y-10297674D01*
X11296015Y-10411960D02*
X11276967Y-10421484D01*
X11276967Y-10421484D02*
X11229348Y-10421484D01*
X11229348Y-10421484D02*
X11210301Y-10411960D01*
X11210301Y-10411960D02*
X11200777Y-10392912D01*
X11200777Y-10392912D02*
X11200777Y-10373865D01*
X11200777Y-10373865D02*
X11210301Y-10354817D01*
X11210301Y-10354817D02*
X11229348Y-10345293D01*
X11229348Y-10345293D02*
X11276967Y-10345293D01*
X11276967Y-10345293D02*
X11296015Y-10335770D01*
X11391253Y-10288150D02*
X11391253Y-10488150D01*
X11391253Y-10297674D02*
X11410301Y-10288150D01*
X11410301Y-10288150D02*
X11448396Y-10288150D01*
X11448396Y-10288150D02*
X11467443Y-10297674D01*
X11467443Y-10297674D02*
X11476967Y-10307198D01*
X11476967Y-10307198D02*
X11486491Y-10326246D01*
X11486491Y-10326246D02*
X11486491Y-10383389D01*
X11486491Y-10383389D02*
X11476967Y-10402436D01*
X11476967Y-10402436D02*
X11467443Y-10411960D01*
X11467443Y-10411960D02*
X11448396Y-10421484D01*
X11448396Y-10421484D02*
X11410301Y-10421484D01*
X11410301Y-10421484D02*
X11391253Y-10411960D01*
X11572205Y-10402436D02*
X11581729Y-10411960D01*
X11581729Y-10411960D02*
X11572205Y-10421484D01*
X11572205Y-10421484D02*
X11562682Y-10411960D01*
X11562682Y-10411960D02*
X11572205Y-10402436D01*
X11572205Y-10402436D02*
X11572205Y-10421484D01*
X11572205Y-10297674D02*
X11581729Y-10307198D01*
X11581729Y-10307198D02*
X11572205Y-10316722D01*
X11572205Y-10316722D02*
X11562682Y-10307198D01*
X11562682Y-10307198D02*
X11572205Y-10297674D01*
X11572205Y-10297674D02*
X11572205Y-10316722D01*
M02*
