%TF.GenerationSoftware,KiCad,Pcbnew,9.0.6*%
%TF.CreationDate,2026-07-10T10:23:27+05:30*%
%TF.ProjectId,Power_Supply,506f7765-725f-4537-9570-706c792e6b69,rev?*%
%TF.SameCoordinates,Original*%
%TF.FileFunction,Soldermask,Bot*%
%TF.FilePolarity,Negative*%
%FSLAX46Y46*%
G04 Gerber Fmt 4.6, Leading zero omitted, Abs format (unit mm)*
G04 Created by KiCad (PCBNEW 9.0.6) date 2026-07-10 10:23:27*
%MOMM*%
%LPD*%
G01*
G04 APERTURE LIST*
%ADD10R,3.000000X3.000000*%
%ADD11C,3.000000*%
%ADD12C,0.700000*%
%ADD13C,4.400000*%
%ADD14R,2.200000X2.200000*%
%ADD15O,2.200000X2.200000*%
%ADD16R,1.905000X2.000000*%
%ADD17O,1.905000X2.000000*%
%ADD18R,1.520000X1.520000*%
%ADD19C,1.520000*%
G04 APERTURE END LIST*
D10*
%TO.C,J1*%
X120543274Y-70126548D03*
D11*
X120543274Y-65046548D03*
%TD*%
D12*
%TO.C,H4*%
X186817500Y-81166726D03*
X187300774Y-80000000D03*
X187300774Y-82333452D03*
X188467500Y-79516726D03*
D13*
X188467500Y-81166726D03*
D12*
X188467500Y-82816726D03*
X189634226Y-80000000D03*
X189634226Y-82333452D03*
X190117500Y-81166726D03*
%TD*%
D14*
%TO.C,D2*%
X154387500Y-81000000D03*
D15*
X164547500Y-81000000D03*
%TD*%
D12*
%TO.C,H2*%
X186817500Y-53150000D03*
X187300774Y-51983274D03*
X187300774Y-54316726D03*
X188467500Y-51500000D03*
D13*
X188467500Y-53150000D03*
D12*
X188467500Y-54800000D03*
X189634226Y-51983274D03*
X189634226Y-54316726D03*
X190117500Y-53150000D03*
%TD*%
D16*
%TO.C,U1*%
X158887500Y-57500000D03*
D17*
X161427500Y-57500000D03*
X163967500Y-57500000D03*
%TD*%
D14*
%TO.C,D4*%
X164547500Y-76500000D03*
D15*
X154387500Y-76500000D03*
%TD*%
D12*
%TO.C,H1*%
X118893274Y-53253274D03*
X119376548Y-52086548D03*
X119376548Y-54420000D03*
X120543274Y-51603274D03*
D13*
X120543274Y-53253274D03*
D12*
X120543274Y-54903274D03*
X121710000Y-52086548D03*
X121710000Y-54420000D03*
X122193274Y-53253274D03*
%TD*%
D14*
%TO.C,D1*%
X154387500Y-67500000D03*
D15*
X164547500Y-67500000D03*
%TD*%
D12*
%TO.C,H3*%
X119226548Y-80419822D03*
X119709822Y-79253096D03*
X119709822Y-81586548D03*
X120876548Y-78769822D03*
D13*
X120876548Y-80419822D03*
D12*
X120876548Y-82069822D03*
X122043274Y-79253096D03*
X122043274Y-81586548D03*
X122526548Y-80419822D03*
%TD*%
D10*
%TO.C,J2*%
X188467500Y-64960000D03*
D11*
X188467500Y-70040000D03*
%TD*%
D18*
%TO.C,T1*%
X130810000Y-72600000D03*
D19*
X130810000Y-64980000D03*
X143510000Y-64980000D03*
X143510000Y-72600000D03*
%TD*%
D14*
%TO.C,D3*%
X164547500Y-72000000D03*
D15*
X154387500Y-72000000D03*
%TD*%
M02*
