M48
; DRILL file {KiCad 8.0.7} date 2025-08-07T00:00:53+0530
; FORMAT={-:-/ absolute / metric / decimal}
; #@! TF.CreationDate,2025-08-07T00:00:53+05:30
; #@! TF.GenerationSoftware,Kicad,Pcbnew,8.0.7
; #@! TF.FileFunction,Plated,1,2,PTH
FMAT,2
METRIC
; #@! TA.AperFunction,Plated,PTH,ComponentDrill
T1C0.400
; #@! TA.AperFunction,Plated,PTH,ComponentDrill
T2C1.100
; #@! TA.AperFunction,Plated,PTH,ComponentDrill
T3C1.500
; #@! TA.AperFunction,Plated,PTH,ComponentDrill
T4C1.520
; #@! TA.AperFunction,Plated,PTH,ComponentDrill
T5C2.200
%
G90
G05
T1
X101.85Y-69.167
X102.183Y-96.333
X102.333Y-68.0
X102.333Y-70.333
X102.667Y-95.167
X102.667Y-97.5
X103.5Y-67.517
X103.5Y-70.817
X103.833Y-94.683
X103.833Y-97.983
X104.667Y-68.0
X104.667Y-70.333
X105.0Y-95.167
X105.0Y-97.5
X105.15Y-69.167
X105.483Y-96.333
X178.85Y-69.15
X178.85Y-97.167
X179.333Y-67.983
X179.333Y-70.317
X179.333Y-96.0
X179.333Y-98.333
X180.5Y-67.5
X180.5Y-70.8
X180.5Y-95.517
X180.5Y-98.817
X181.667Y-67.983
X181.667Y-70.317
X181.667Y-96.0
X181.667Y-98.333
X182.15Y-69.15
X182.15Y-97.167
T2
X146.42Y-83.5
X146.42Y-88.0
X146.42Y-92.5
X146.42Y-97.0
X150.92Y-73.5
X153.46Y-73.5
X156.0Y-73.5
X156.58Y-83.5
X156.58Y-88.0
X156.58Y-92.5
X156.58Y-97.0
T3
X119.5Y-73.5
X119.5Y-78.5
X119.5Y-83.5
X119.5Y-88.5
X119.5Y-93.5
X139.5Y-73.5
X139.5Y-78.5
X139.5Y-83.5
X139.5Y-88.5
X139.5Y-93.5
T4
X103.5Y-80.96
X103.5Y-86.04
X180.5Y-80.96
X180.5Y-86.04
T5
X103.5Y-69.167
X103.833Y-96.333
X180.5Y-69.15
X180.5Y-97.167
M30
